<?xml version="1.0" standalone="no"?>
<!DOCTYPE svg PUBLIC "-//W3C//DTD SVG 20010904//EN"
 "http://www.w3.org/TR/2001/REC-SVG-20010904/DTD/svg10.dtd">
<svg version="1.0" xmlns="http://www.w3.org/2000/svg"
 width="700.000000pt" height="700.000000pt" viewBox="0 0 700.000000 700.000000"
 preserveAspectRatio="xMidYMid meet">
<metadata>
Created by potrace 1.14, written by Peter Selinger 2001-2017
</metadata>
<g transform="translate(0.000000,700.000000) scale(0.100000,-0.100000)"
fill="#000000" stroke="none">
<path d="M0 3500 l0 -3500 3500 0 3500 0 0 3500 0 3500 -3500 0 -3500 0 0
-3500z m5152 2777 c108 -53 175 -160 204 -327 20 -113 14 -364 -11 -525 -65
-415 -210 -916 -447 -1548 -55 -148 -99 -270 -97 -271 11 -9 203 39 258 64 68
32 101 38 101 17 0 -44 -139 -117 -300 -158 l-105 -27 -68 -164 c-132 -317
-241 -557 -402 -883 -364 -735 -685 -1224 -1030 -1570 -259 -260 -476 -389
-712 -425 -148 -23 -290 1 -442 76 -79 39 -109 61 -180 133 -98 98 -141 166
-182 283 -109 320 -33 693 219 1069 365 543 1013 998 1884 1323 251 93 710
226 785 226 10 0 24 4 31 8 15 10 125 273 225 537 380 1011 484 1722 292 1986
-132 182 -438 112 -840 -192 -196 -148 -428 -377 -600 -594 -297 -373 -589
-945 -699 -1369 -86 -330 -47 -530 128 -651 42 -29 56 -44 54 -59 -9 -61 -137
2 -204 101 -99 145 -121 279 -89 528 66 499 338 1074 758 1603 318 398 641
662 949 776 130 48 230 66 358 63 92 -2 112 -6 162 -30z"/>
<path d="M4490 3454 c-924 -213 -1799 -699 -2265 -1258 -123 -147 -248 -368
-305 -536 -68 -203 -82 -444 -36 -622 100 -391 393 -582 731 -477 470 145 990
809 1600 2044 118 238 405 856 405 871 0 7 -22 3 -130 -22z"/>
</g>
</svg>
