<svg xmlns="http://www.w3.org/2000/svg" xmlns:xlink="http://www.w3.org/1999/xlink" xml:space="preserve" viewBox="0 0 520 520"><defs><path id="a" d="M10.2 60.54c-1.44-.6-2.88-2.94-2.88-5.52 0-3.18 1.14-10.32 6.96-18.78 5.46-7.98 12-14.04 18.84-14.04 9.06 0 3.54 18.66-2.34 33.54 1.62-.24 2.82-.54 3.6-1.02 1.02-.6 1.2.12.48.66-.96.72-2.4 1.26-4.62 1.68l-.42 1.08C24 72.42 12.96 94.86 1.62 94.86c-9 0-14.94-11.88-1.62-24.78 8.88-8.58 23.04-12.96 29.1-14.04 9.54-22.32 8.88-32.4 3.84-32.4-4.86 0-12.78 7.02-17.04 13.32-4.86 7.2-7.5 14.7-7.5 18.24 0 2.76 1.5 4.02 2.46 4.56.96.66.24 1.2-.66.78zM1.44 93.78c7.92 0 16.92-13.26 27.06-36.42C20.94 58.8 9.3 63 1.02 70.98c-11.04 10.74-6.54 22.8.42 22.8z" style="stroke:none;stroke-width:1;stroke-dasharray:none;stroke-linecap:butt;stroke-dashoffset:0;stroke-linejoin:miter;stroke-miterlimit:4;fill:orange;fill-rule:nonzero;opacity:1"/></defs><rect width="100%" height="100%" fill="transparent"/><use xlink:href="#a" style="stroke:none;stroke-width:1;stroke-dasharray:none;stroke-linecap:butt;stroke-dashoffset:0;stroke-linejoin:miter;stroke-miterlimit:4;fill:orange;fill-rule:nonzero;opacity:1" transform="scale(0)"/><use xlink:href="#a" style="stroke:none;stroke-width:1;stroke-dasharray:none;stroke-linecap:butt;stroke-dashoffset:0;stroke-linejoin:miter;stroke-miterlimit:4;fill:orange;fill-rule:nonzero;opacity:1" transform="scale(0)"/><use xlink:href="#a" style="stroke:none;stroke-width:1;stroke-dasharray:none;stroke-linecap:butt;stroke-dashoffset:0;stroke-linejoin:miter;stroke-miterlimit:4;fill:orange;fill-rule:nonzero;opacity:1" transform="scale(0)"/><use xlink:href="#a" style="stroke:orange;stroke-width:0;stroke-dasharray:none;stroke-linecap:butt;stroke-dashoffset:0;stroke-linejoin:miter;stroke-miterlimit:4;fill:orange;fill-rule:nonzero;opacity:1" transform="matrix(6 0 0 6 171.899 -82.4)"/></svg>